# xmcd
#
# Track frame offsets:
#	183
#	24685
#	40983
#	58280
#	79870
#	95973
#	119640
#	137450
#	155615
#	171785
#
# Disc length: 2463 seconds
#
# Revision: 1
# Processed by: cddbd v1.4PL0 Copyright (c) Steve Scherf et al.
# Submitted via: EasyCDDAExtractor 5.0.6
#
DISCID=8e099d0a
DTITLE=Millie Jackson - Just A Lil Bit Country
DYEAR=1900
DGENRE=
TTITLE0=I Can't Stop Loving You
TTITLE1=Till I Get It Right
TTITLE2=Pick Me Up On Your Way Down
TTITLE3=Loving You
TTITLE4=I Laughed A Lot
TTITLE5=Love On The Rocks
TTITLE6=Standing In Your Line
TTITLE7=Rose Colored Glasses
TTITLE8=It Meant Nothing To Me
TTITLE9=Anybody That Don't Like Millie Jackson
EXTD=
EXTT0=
EXTT1=
EXTT2=
EXTT3=
EXTT4=
EXTT5=
EXTT6=
EXTT7=
EXTT8=
EXTT9=
PLAYORDER=
